<mxfile host="app.diagrams.net" modified="2021-06-07T08:11:47.617Z" agent="5.0 (Windows NT 10.0; Win64; x64) AppleWebKit/537.36 (KHTML, like Gecko) Chrome/90.0.4430.212 Safari/537.36" etag="YhUTLRxmmUnoxUtmeRI5" version="14.7.6" type="github">
  <diagram id="QjUY8rd6lTutOXnf1ftp" name="Page-1">
    <mxGraphModel dx="1038" dy="580" grid="0" gridSize="10" guides="1" tooltips="1" connect="1" arrows="1" fold="1" page="1" pageScale="1" pageWidth="827" pageHeight="1169" math="0" shadow="0">
      <root>
        <mxCell id="0" />
        <mxCell id="1" parent="0" />
        <mxCell id="_9kBscbex0TnuzICBj4Y-4" value="&lt;font style=&quot;font-size: 18px&quot;&gt;Cluster&lt;/font&gt;" style="rounded=1;whiteSpace=wrap;html=1;absoluteArcSize=1;arcSize=14;strokeWidth=2;fillColor=#d5e8d4;strokeColor=#82b366;" parent="1" vertex="1">
          <mxGeometry x="94" y="120" width="50" height="260" as="geometry" />
        </mxCell>
        <mxCell id="_9kBscbex0TnuzICBj4Y-5" value="" style="rounded=1;whiteSpace=wrap;html=1;absoluteArcSize=1;arcSize=14;strokeWidth=2;strokeColor=#66FF66;" parent="1" vertex="1">
          <mxGeometry x="182" y="185" width="160" height="100" as="geometry" />
        </mxCell>
        <mxCell id="_9kBscbex0TnuzICBj4Y-8" value="R0" style="rounded=1;whiteSpace=wrap;html=1;absoluteArcSize=1;arcSize=14;strokeWidth=2;strokeColor=#E1D5E7;" parent="1" vertex="1">
          <mxGeometry x="202" y="225" width="50" height="50" as="geometry" />
        </mxCell>
        <mxCell id="_9kBscbex0TnuzICBj4Y-9" value="" style="rounded=1;whiteSpace=wrap;html=1;absoluteArcSize=1;arcSize=14;strokeWidth=2;strokeColor=#66FF66;" parent="1" vertex="1">
          <mxGeometry x="376" y="185" width="160" height="100" as="geometry" />
        </mxCell>
        <mxCell id="_9kBscbex0TnuzICBj4Y-10" value="" style="rounded=1;whiteSpace=wrap;html=1;absoluteArcSize=1;arcSize=14;strokeWidth=2;strokeColor=#66FF66;" parent="1" vertex="1">
          <mxGeometry x="572" y="185" width="160" height="100" as="geometry" />
        </mxCell>
        <mxCell id="_9kBscbex0TnuzICBj4Y-12" value="P1" style="rounded=1;whiteSpace=wrap;html=1;absoluteArcSize=1;arcSize=14;strokeWidth=2;strokeColor=#6c8ebf;fillColor=#dae8fc;" parent="1" vertex="1">
          <mxGeometry x="272" y="225" width="50" height="50" as="geometry" />
        </mxCell>
        <mxCell id="_9kBscbex0TnuzICBj4Y-13" value="R0" style="rounded=1;whiteSpace=wrap;html=1;absoluteArcSize=1;arcSize=14;strokeWidth=2;strokeColor=#E1D5E7;" parent="1" vertex="1">
          <mxGeometry x="402" y="225" width="50" height="50" as="geometry" />
        </mxCell>
        <mxCell id="_9kBscbex0TnuzICBj4Y-14" value="R1" style="rounded=1;whiteSpace=wrap;html=1;absoluteArcSize=1;arcSize=14;strokeWidth=2;strokeColor=#E1D5E7;" parent="1" vertex="1">
          <mxGeometry x="472" y="225" width="50" height="50" as="geometry" />
        </mxCell>
        <mxCell id="_9kBscbex0TnuzICBj4Y-15" value="P0" style="rounded=1;whiteSpace=wrap;html=1;absoluteArcSize=1;arcSize=14;strokeWidth=2;strokeColor=#6c8ebf;fillColor=#dae8fc;" parent="1" vertex="1">
          <mxGeometry x="592" y="225" width="50" height="50" as="geometry" />
        </mxCell>
        <mxCell id="_9kBscbex0TnuzICBj4Y-16" value="R1" style="rounded=1;whiteSpace=wrap;html=1;absoluteArcSize=1;arcSize=14;strokeWidth=2;strokeColor=#E1D5E7;" parent="1" vertex="1">
          <mxGeometry x="662" y="225" width="50" height="50" as="geometry" />
        </mxCell>
        <mxCell id="_9kBscbex0TnuzICBj4Y-18" value="NODE1-â˜†Master" style="rounded=1;whiteSpace=wrap;html=1;absoluteArcSize=1;arcSize=14;strokeWidth=2;strokeColor=#FFFFFF;fillColor=none;" parent="1" vertex="1">
          <mxGeometry x="202" y="195" width="130" height="20" as="geometry" />
        </mxCell>
        <mxCell id="_9kBscbex0TnuzICBj4Y-20" value="NODE2" style="rounded=1;whiteSpace=wrap;html=1;absoluteArcSize=1;arcSize=14;strokeWidth=2;strokeColor=#FFFFFF;fillColor=none;" parent="1" vertex="1">
          <mxGeometry x="390.5" y="195" width="130" height="20" as="geometry" />
        </mxCell>
        <mxCell id="_9kBscbex0TnuzICBj4Y-21" value="NODE3" style="rounded=1;whiteSpace=wrap;html=1;absoluteArcSize=1;arcSize=14;strokeWidth=2;strokeColor=#FFFFFF;fillColor=none;" parent="1" vertex="1">
          <mxGeometry x="587" y="195" width="130" height="20" as="geometry" />
        </mxCell>
        <mxCell id="_9kBscbex0TnuzICBj4Y-26" value="1" style="edgeStyle=elbowEdgeStyle;elbow=vertical;endArrow=classic;html=1;entryX=0.25;entryY=1;entryDx=0;entryDy=0;strokeWidth=1;" parent="1" target="_9kBscbex0TnuzICBj4Y-12" edge="1">
          <mxGeometry x="0.1279" width="50" height="50" relative="1" as="geometry">
            <mxPoint x="182" y="355" as="sourcePoint" />
            <mxPoint x="302" y="305" as="targetPoint" />
            <Array as="points">
              <mxPoint x="218" y="305" />
              <mxPoint x="282" y="305" />
            </Array>
            <mxPoint as="offset" />
          </mxGeometry>
        </mxCell>
        <mxCell id="_9kBscbex0TnuzICBj4Y-27" value="" style="edgeStyle=elbowEdgeStyle;elbow=vertical;endArrow=classic;html=1;exitX=0.75;exitY=1;exitDx=0;exitDy=0;" parent="1" source="_9kBscbex0TnuzICBj4Y-12" edge="1">
          <mxGeometry width="50" height="50" relative="1" as="geometry">
            <mxPoint x="326" y="315" as="sourcePoint" />
            <mxPoint x="618" y="275" as="targetPoint" />
            <Array as="points">
              <mxPoint x="503" y="354" />
              <mxPoint x="631" y="275" />
              <mxPoint x="388" y="294" />
              <mxPoint x="425" y="304" />
              <mxPoint x="435" y="314" />
              <mxPoint x="442" y="325" />
              <mxPoint x="582" y="335" />
            </Array>
          </mxGeometry>
        </mxCell>
        <mxCell id="_9kBscbex0TnuzICBj4Y-28" value="2" style="edgeLabel;html=1;align=center;verticalAlign=middle;resizable=0;points=[];" parent="_9kBscbex0TnuzICBj4Y-27" vertex="1" connectable="0">
          <mxGeometry x="-0.386" y="1" relative="1" as="geometry">
            <mxPoint as="offset" />
          </mxGeometry>
        </mxCell>
        <mxCell id="8MhI1Fw5w1LFUC4MnuMZ-23" value="" style="edgeStyle=segmentEdgeStyle;endArrow=classic;html=1;strokeWidth=1;exitX=0.75;exitY=1;exitDx=0;exitDy=0;entryX=0.5;entryY=0;entryDx=0;entryDy=0;" edge="1" parent="1" source="_9kBscbex0TnuzICBj4Y-15" target="_9kBscbex0TnuzICBj4Y-15">
          <mxGeometry width="50" height="50" relative="1" as="geometry">
            <mxPoint x="631" y="370" as="sourcePoint" />
            <mxPoint x="617" y="151" as="targetPoint" />
            <Array as="points">
              <mxPoint x="630" y="354" />
              <mxPoint x="761" y="354" />
              <mxPoint x="761" y="138" />
              <mxPoint x="630" y="138" />
              <mxPoint x="630" y="225" />
            </Array>
          </mxGeometry>
        </mxCell>
        <mxCell id="8MhI1Fw5w1LFUC4MnuMZ-24" value="3" style="edgeLabel;html=1;align=center;verticalAlign=middle;resizable=0;points=[];" vertex="1" connectable="0" parent="8MhI1Fw5w1LFUC4MnuMZ-23">
          <mxGeometry x="-0.1486" relative="1" as="geometry">
            <mxPoint as="offset" />
          </mxGeometry>
        </mxCell>
        <mxCell id="8MhI1Fw5w1LFUC4MnuMZ-26" value="" style="edgeStyle=segmentEdgeStyle;endArrow=classic;html=1;strokeWidth=1;exitX=0.25;exitY=1;exitDx=0;exitDy=0;" edge="1" parent="1" source="_9kBscbex0TnuzICBj4Y-15">
          <mxGeometry width="50" height="50" relative="1" as="geometry">
            <mxPoint x="606" y="316" as="sourcePoint" />
            <mxPoint x="435" y="274" as="targetPoint" />
            <Array as="points">
              <mxPoint x="605" y="330" />
              <mxPoint x="435" y="330" />
            </Array>
          </mxGeometry>
        </mxCell>
        <mxCell id="8MhI1Fw5w1LFUC4MnuMZ-27" value="4" style="text;html=1;align=center;verticalAlign=middle;resizable=0;points=[];autosize=1;strokeColor=none;" vertex="1" parent="1">
          <mxGeometry x="501" y="315" width="16" height="18" as="geometry" />
        </mxCell>
        <mxCell id="8MhI1Fw5w1LFUC4MnuMZ-29" value="" style="edgeStyle=segmentEdgeStyle;endArrow=classic;html=1;strokeWidth=1;exitX=0.25;exitY=0;exitDx=0;exitDy=0;entryX=0.25;entryY=0;entryDx=0;entryDy=0;" edge="1" parent="1" source="_9kBscbex0TnuzICBj4Y-15" target="_9kBscbex0TnuzICBj4Y-8">
          <mxGeometry width="50" height="50" relative="1" as="geometry">
            <mxPoint x="548" y="138" as="sourcePoint" />
            <mxPoint x="598" y="88" as="targetPoint" />
            <Array as="points">
              <mxPoint x="605" y="139" />
              <mxPoint x="215" y="139" />
            </Array>
          </mxGeometry>
        </mxCell>
        <mxCell id="8MhI1Fw5w1LFUC4MnuMZ-30" value="4" style="text;html=1;align=center;verticalAlign=middle;resizable=0;points=[];autosize=1;strokeColor=none;" vertex="1" parent="1">
          <mxGeometry x="400" y="122" width="16" height="18" as="geometry" />
        </mxCell>
      </root>
    </mxGraphModel>
  </diagram>
</mxfile>
